<svg width="31" height="29" fill="none" xmlns="http://www.w3.org/2000/svg"><path d="M24.159.864a.94.94 0 00-1.004-.041 40.988 40.988 0 00-5.052 3.434.942.942 0 00-.064 1.412c3.32 3.16 7.921 12.847 8.977 17.3C24.728 19.103 19.623 10 16.285 6.89a.942.942 0 00-1.28 0C11.661 10 6.574 19.107 4.285 22.98 5.342 18.527 9.93 8.828 13.251 5.67a.933.933 0 00-.059-1.412A41.445 41.445 0 008.14.823a.941.941 0 00-1.003.04A14.992 14.992 0 00.624 13.207a14.85 14.85 0 003.661 9.775 14.897 14.897 0 0011.36 5.228c4.395 0 8.537-1.905 11.371-5.233a14.848 14.848 0 003.65-9.77A15 15 0 0024.159.865z" fill="#FFB548"/></svg>